Mooli-Book.ufo
<glyph name="parenright" format="1">
  <advance width="626"/>
  <unicode hex="0029"/>
  <outline>
    <contour>
      <point x="52" y="1551" type="line"/>
      <point x="407" y="993"/>
      <point x="391" y="320"/>
      <point x="56" y="-214" type="curve"/>
      <point x="205" y="-214" type="line"/>
      <point x="566" y="355"/>
      <point x="578" y="956"/>
      <point x="199" y="1551" type="curve"/>
    </contour>
  </outline>
</glyph>
<glyph name="six" format="1">
  <advance width="1248"/>
  <unicode hex="0036"/>
  <outline>
    <contour>
      <point x="146" y="240"/>
      <point x="286" y="-22"/>
      <point x="641" y="-22" type="curve" smooth="yes"/>
      <point x="930" y="-22"/>
      <point x="1144" y="177"/>
      <point x="1144" y="466" type="curve" smooth="yes"/>
      <point x="1144" y="737"/>
      <point x="973" y="957"/>
      <point x="665" y="957" type="curve" smooth="yes"/>
      <point x="555" y="957"/>
      <point x="366" y="901"/>
      <point x="301" y="779" type="curve"/>
      <point x="361" y="1052"/>
      <point x="559" y="1291"/>
      <point x="910" y="1338" type="curve"/>
      <point x="874" y="1484" type="line"/>
      <point x="262" y="1391"/>
      <point x="99" y="890"/>
      <point x="127" y="501" type="curve" smooth="yes"/>
    </contour>
    <contour>
      <point x="977" y="256"/>
      <point x="853" y="127"/>
      <point x="639" y="127" type="curve" smooth="yes"/>
      <point x="404" y="127"/>
      <point x="294" y="292"/>
      <point x="294" y="469" type="curve" smooth="yes"/>
      <point x="294" y="670"/>
      <point x="432" y="820"/>
      <point x="645" y="821" type="curve" smooth="yes"/>
      <point x="899" y="822"/>
      <point x="977" y="634"/>
      <point x="977" y="461" type="curve" smooth="yes"/>
    </contour>
  </outline>
</glyph>
<glyph name="B" format="1">
  <advance width="1297"/>
  <unicode hex="0042"/>
  <outline>
    <contour>
      <point x="174" y="1456" type="line"/>
      <point x="174" y="0" type="line"/>
      <point x="651" y="0" type="line" smooth="yes"/>
      <point x="998" y="0"/>
      <point x="1212" y="114"/>
      <point x="1212" y="403" type="curve" smooth="yes"/>
      <point x="1212" y="625"/>
      <point x="1106" y="730"/>
      <point x="908" y="769" type="curve"/>
      <point x="1068" y="823"/>
      <point x="1143" y="918"/>
      <point x="1143" y="1105" type="curve" smooth="yes"/>
      <point x="1143" y="1357"/>
      <point x="960" y="1456"/>
      <point x="585" y="1456" type="curve" smooth="yes"/>
    </contour>
    <contour>
      <point x="908" y="684"/>
      <point x="1030" y="602"/>
      <point x="1030" y="406" type="curve" smooth="yes"/>
      <point x="1030" y="221"/>
      <point x="913" y="148"/>
      <point x="645" y="148" type="curve" smooth="yes"/>
      <point x="346" y="148" type="line"/>
      <point x="346" y="684" type="line"/>
      <point x="599" y="684" type="line" smooth="yes"/>
    </contour>
    <contour>
      <point x="858" y="1308"/>
      <point x="962" y="1243"/>
      <point x="962" y="1077" type="curve" smooth="yes"/>
      <point x="962" y="898"/>
      <point x="851" y="825"/>
      <point x="569" y="825" type="curve" smooth="yes"/>
      <point x="346" y="825" type="line"/>
      <point x="346" y="1308" type="line"/>
      <point x="585" y="1308" type="line" smooth="yes"/>
    </contour>
  </outline>
</glyph>
<glyph name="C" format="1">
  <advance width="1391"/>
  <unicode hex="0043"/>
  <outline>
    <contour>
      <point x="390" y="1483"/>
      <point x="112" y="1168"/>
      <point x="112" y="726" type="curve" smooth="yes"/>
      <point x="112" y="287"/>
      <point x="375" y="-22"/>
      <point x="816" y="-22" type="curve" smooth="yes"/>
      <point x="1017" y="-22"/>
      <point x="1176" y="31"/>
      <point x="1295" y="127" type="curve"/>
      <point x="1238" y="267" type="line"/>
      <point x="1137" y="179"/>
      <point x="1002" y="130"/>
      <point x="821" y="130" type="curve" smooth="yes"/>
      <point x="465" y="130"/>
      <point x="295" y="382"/>
      <point x="295" y="725" type="curve" smooth="yes"/>
      <point x="295" y="1076"/>
      <point x="483" y="1331"/>
      <point x="837" y="1331" type="curve" smooth="yes"/>
      <point x="974" y="1331"/>
      <point x="1101" y="1283"/>
      <point x="1202" y="1206" type="curve"/>
      <point x="1281" y="1332" type="line"/>
      <point x="1171" y="1414"/>
      <point x="1038" y="1483"/>
      <point x="818" y="1483" type="curve" smooth="yes"/>
    </contour>
    <contour>
      <point x="801" y="1456" type="move" name="top"/>
    </contour>
    <contour>
      <point x="842" y="0" type="move" name="bottom"/>
    </contour>
  </outline>
</glyph>
<glyph name="D" format="1">
  <advance width="1523"/>
  <unicode hex="0044"/>
  <outline>
    <contour>
      <point x="174" y="1456" type="line"/>
      <point x="174" y="0" type="line"/>
      <point x="591" y="0" type="line" smooth="yes"/>
      <point x="1076" y="0"/>
      <point x="1411" y="241"/>
      <point x="1411" y="724" type="curve" smooth="yes"/>
      <point x="1411" y="1273"/>
      <point x="1037" y="1456"/>
      <point x="489" y="1456" type="curve" smooth="yes"/>
    </contour>
    <contour>
      <point x="960" y="1308"/>
      <point x="1229" y="1170"/>
      <point x="1229" y="721" type="curve" smooth="yes"/>
      <point x="1229" y="341"/>
      <point x="992" y="148"/>
      <point x="607" y="148" type="curve" smooth="yes"/>
      <point x="346" y="148" type="line"/>
      <point x="346" y="1308" type="line"/>
      <point x="510" y="1308" type="line" smooth="yes"/>
    </contour>
    <contour>
      <point x="254" y="773" type="move" name="center"/>
    </contour>
    <contour>
      <point x="743" y="1456" type="move" name="top"/>
    </contour>
  </outline>
</glyph>
<glyph name="E" format="1">
  <advance width="1187"/>
  <unicode hex="0045"/>
  <outline>
    <contour>
      <point x="174" y="1456" type="line"/>
      <point x="174" y="0" type="line"/>
      <point x="1091" y="0" type="line"/>
      <point x="1091" y="148" type="line"/>
      <point x="346" y="148" type="line"/>
      <point x="346" y="672" type="line"/>
      <point x="1003" y="672" type="line"/>
      <point x="1003" y="820" type="line"/>
      <point x="346" y="820" type="line"/>
      <point x="346" y="1308" type="line"/>
      <point x="1041" y="1308" type="line"/>
      <point x="1041" y="1456" type="line"/>
    </contour>
    <contour>
      <point x="1065" y="10" type="move" name="ogonek"/>
    </contour>
    <contour>
      <point x="656" y="0" type="move" name="bottom"/>
    </contour>
    <contour>
      <point x="643" y="1456" type="move" name="top"/>
    </contour>
  </outline>
</glyph>
<glyph name="F" format="1">
  <advance width="1103"/>
  <unicode hex="0046"/>
  <outline>
    <contour>
      <point x="174" y="1456" type="line"/>
      <point x="174" y="0" type="line"/>
      <point x="346" y="0" type="line"/>
      <point x="346" y="667" type="line"/>
      <point x="983" y="667" type="line"/>
      <point x="983" y="815" type="line"/>
      <point x="346" y="815" type="line"/>
      <point x="346" y="1308" type="line"/>
      <point x="1017" y="1308" type="line"/>
      <point x="1017" y="1456" type="line"/>
    </contour>
  </outline>
</glyph>
<glyph name="G" format="1">
  <advance width="1512"/>
  <unicode hex="0047"/>
  <outline>
    <contour>
      <point x="392" y="1483"/>
      <point x="112" y="1165"/>
      <point x="112" y="701" type="curve" smooth="yes"/>
      <point x="112" y="239"/>
      <point x="380" y="-22"/>
      <point x="845" y="-22" type="curve" smooth="yes"/>
      <point x="1044" y="-22"/>
      <point x="1203" y="13"/>
      <point x="1348" y="81" type="curve"/>
      <point x="1348" y="757" type="line"/>
      <point x="815" y="757" type="line"/>
      <point x="815" y="608" type="line"/>
      <point x="1176" y="608" type="line"/>
      <point x="1176" y="178" type="line"/>
      <point x="1086" y="142"/>
      <point x="980" y="130"/>
      <point x="859" y="130" type="curve" smooth="yes"/>
      <point x="488" y="130"/>
      <point x="290" y="344"/>
      <point x="290" y="714" type="curve" smooth="yes"/>
      <point x="290" y="1069"/>
      <point x="495" y="1331"/>
      <point x="852" y="1331" type="curve" smooth="yes"/>
      <point x="1024" y="1331"/>
      <point x="1159" y="1286"/>
      <point x="1251" y="1198" type="curve"/>
      <point x="1323" y="1315" type="line"/>
      <point x="1207" y="1431"/>
      <point x="1067" y="1483"/>
      <point x="856" y="1483" type="curve" smooth="yes"/>
    </contour>
    <contour>
      <point x="860" y="1456" type="move" name="top"/>
    </contour>
    <contour>
      <point x="761" y="0" type="move" name="bottom"/>
    </contour>
  </outline>
</glyph>
<glyph name="J" format="1">
  <advance width="1041"/>
  <unicode hex="004A"/>
  <outline>
    <contour>
      <point x="164" y="1456" type="line"/>
      <point x="164" y="1314" type="line"/>
      <point x="583" y="1314" type="line"/>
      <point x="583" y="334" type="line" smooth="yes"/>
      <point x="583" y="-35"/>
      <point x="390" y="-111"/>
      <point x="93" y="22" type="curve"/>
      <point x="41" y="-114" type="line"/>
      <point x="396" y="-285"/>
      <point x="755" y="-176"/>
      <point x="755" y="336" type="curve" smooth="yes"/>
      <point x="755" y="1314" type="line"/>
      <point x="1027" y="1314" type="line"/>
      <point x="1027" y="1456" type="line"/>
    </contour>
    <contour>
      <point x="610" y="1456" type="move" name="top"/>
    </contour>
  </outline>
</glyph>
<glyph name="L" format="1">
  <advance width="1069"/>
  <unicode hex="004C"/>
  <outline>
    <contour>
      <point x="174" y="1456" type="line"/>
      <point x="174" y="0" type="line"/>
      <point x="1045" y="0" type="line"/>
      <point x="1045" y="148" type="line"/>
      <point x="346" y="148" type="line"/>
      <point x="346" y="1456" type="line"/>
    </contour>
    <contour>
      <point x="268" y="817" type="move" name="center"/>
    </contour>
    <contour>
      <point x="591" y="0" type="move" name="bottom"/>
    </contour>
    <contour>
      <point x="532" y="1456" type="move" name="top"/>
    </contour>
  </outline>
</glyph>
<glyph name="O" format="1">
  <advance width="1660"/>
  <unicode hex="004F"/>
  <outline>
    <contour>
      <point x="356" y="1483"/>
      <point x="112" y="1122"/>
      <point x="112" y="728" type="curve" smooth="yes"/>
      <point x="112" y="336"/>
      <point x="356" y="-25"/>
      <point x="830" y="-25" type="curve" smooth="yes"/>
      <point x="1304" y="-25"/>
      <point x="1548" y="336"/>
      <point x="1548" y="728" type="curve" smooth="yes"/>
      <point x="1548" y="1122"/>
      <point x="1304" y="1483"/>
      <point x="830" y="1483" type="curve" smooth="yes"/>
    </contour>
    <contour>
      <point x="1108" y="1331"/>
      <point x="1364" y="1128"/>
      <point x="1364" y="729" type="curve" smooth="yes"/>
      <point x="1364" y="330"/>
      <point x="1108" y="127"/>
      <point x="830" y="127" type="curve" smooth="yes"/>
      <point x="552" y="127"/>
      <point x="296" y="330"/>
      <point x="296" y="729" type="curve" smooth="yes"/>
      <point x="296" y="1128"/>
      <point x="552" y="1331"/>
      <point x="830" y="1331" type="curve" smooth="yes"/>
    </contour>
    <contour>
      <point x="827" y="0" type="move" name="top"/>
    </contour>
  </outline>
</glyph>
<glyph name="P" format="1">
  <advance width="1239"/>
  <unicode hex="0050"/>
  <outline>
    <contour>
      <point x="174" y="1456" type="line"/>
      <point x="174" y="0" type="line"/>
      <point x="346" y="0" type="line"/>
      <point x="346" y="587" type="line"/>
      <point x="588" y="587" type="line" smooth="yes"/>
      <point x="973" y="587"/>
      <point x="1171" y="734"/>
      <point x="1171" y="1020" type="curve" smooth="yes"/>
      <point x="1171" y="1316"/>
      <point x="995" y="1456"/>
      <point x="563" y="1456" type="curve" smooth="yes"/>
    </contour>
    <contour>
      <point x="878" y="1308"/>
      <point x="987" y="1215"/>
      <point x="987" y="1018" type="curve" smooth="yes"/>
      <point x="987" y="832"/>
      <point x="858" y="736"/>
      <point x="607" y="736" type="curve" smooth="yes"/>
      <point x="346" y="736" type="line"/>
      <point x="346" y="1308" type="line"/>
      <point x="587" y="1308" type="line" smooth="yes"/>
    </contour>
  </outline>
</glyph>
<glyph name="Q" format="1">
  <advance width="1648"/>
  <unicode hex="0051"/>
  <outline>
    <contour>
      <point x="385" y="1483"/>
      <point x="112" y="1183"/>
      <point x="112" y="736" type="curve" smooth="yes"/>
      <point x="112" y="282"/>
      <point x="369" y="-22"/>
      <point x="822" y="-22" type="curve" smooth="yes"/>
      <point x="860" y="-22"/>
      <point x="896" y="-19"/>
      <point x="927" y="-13" type="curve"/>
      <point x="1003" y="-176"/>
      <point x="1112" y="-305"/>
      <point x="1229" y="-422" type="curve"/>
      <point x="1341" y="-304" type="line"/>
      <point x="1243" y="-213"/>
      <point x="1155" y="-110"/>
      <point x="1092" y="20" type="curve"/>
      <point x="1355" y="124"/>
      <point x="1536" y="374"/>
      <point x="1536" y="736" type="curve" smooth="yes"/>
      <point x="1536" y="1183"/>
      <point x="1278" y="1483"/>
      <point x="830" y="1483" type="curve" smooth="yes"/>
    </contour>
    <contour>
      <point x="1174" y="1334"/>
      <point x="1348" y="1087"/>
      <point x="1348" y="736" type="curve" smooth="yes"/>
      <point x="1348" y="382"/>
      <point x="1178" y="123"/>
      <point x="823" y="123" type="curve" smooth="yes"/>
      <point x="477" y="123"/>
      <point x="291" y="389"/>
      <point x="291" y="736" type="curve" smooth="yes"/>
      <point x="291" y="1081"/>
      <point x="477" y="1334"/>
      <point x="823" y="1334" type="curve" smooth="yes"/>
    </contour>
  </outline>
</glyph>
<glyph name="R" format="1">
  <advance width="1320"/>
  <unicode hex="0052"/>
  <outline>
    <contour>
      <point x="174" y="1456" type="line"/>
      <point x="174" y="0" type="line"/>
      <point x="346" y="0" type="line"/>
      <point x="346" y="652" type="line"/>
      <point x="616" y="652" type="line" smooth="yes"/>
      <point x="812" y="652"/>
      <point x="862" y="564"/>
      <point x="915" y="419" type="curve" smooth="yes"/>
      <point x="1068" y="0" type="line"/>
      <point x="1256" y="0" type="line"/>
      <point x="1093" y="410" type="line" smooth="yes"/>
      <point x="1039" y="546"/>
      <point x="994" y="670"/>
      <point x="858" y="715" type="curve"/>
      <point x="1024" y="758"/>
      <point x="1168" y="867"/>
      <point x="1168" y="1074" type="curve" smooth="yes"/>
      <point x="1168" y="1410"/>
      <point x="865" y="1456"/>
      <point x="530" y="1456" type="curve" smooth="yes"/>
    </contour>
    <contour>
      <point x="826" y="1308"/>
      <point x="986" y="1261"/>
      <point x="986" y="1058" type="curve" smooth="yes"/>
      <point x="986" y="859"/>
      <point x="809" y="799"/>
      <point x="612" y="799" type="curve" smooth="yes"/>
      <point x="346" y="799" type="line"/>
      <point x="346" y="1308" type="line"/>
      <point x="623" y="1308" type="line" smooth="yes"/>
    </contour>
    <contour>
      <point x="659" y="1456" type="move" name="top"/>
    </contour>
    <contour>
      <point x="659" y="0" type="move" name="bottom"/>
    </contour>
  </outline>
</glyph>
<glyph name="T" format="1">
  <advance width="1161"/>
  <unicode hex="0054"/>
  <outline>
    <contour>
      <point x="24" y="1456" type="line"/>
      <point x="24" y="1308" type="line"/>
      <point x="493" y="1308" type="line"/>
      <point x="493" y="0" type="line"/>
      <point x="665" y="0" type="line"/>
      <point x="665" y="1308" type="line"/>
      <point x="1137" y="1308" type="line"/>
      <point x="1137" y="1456" type="line"/>
    </contour>
    <contour>
      <point x="579" y="811" type="move" name="center"/>
    </contour>
    <contour>
      <point x="579" y="0" type="move" name="bottom"/>
    </contour>
    <contour>
      <point x="579" y="1456" type="move" name="top"/>
    </contour>
  </outline>
</glyph>
<glyph name="V" format="1">
  <advance width="1336"/>
  <unicode hex="0056"/>
  <outline>
    <contour>
      <point x="1141" y="1456" type="line"/>
      <point x="720" y="324" type="line"/>
      <point x="672" y="184" type="line"/>
      <point x="626" y="325" type="line"/>
      <point x="201" y="1456" type="line"/>
      <point x="13" y="1456" type="line"/>
      <point x="581" y="1" type="line"/>
      <point x="767" y="1" type="line"/>
      <point x="1324" y="1456" type="line"/>
    </contour>
  </outline>
</glyph>
<glyph name="W" format="1">
  <advance width="2095"/>
  <unicode hex="0057"/>
  <outline>
    <contour>
      <point x="1897" y="1456" type="line"/>
      <point x="1592" y="349" type="line"/>
      <point x="1550" y="190" type="line"/>
      <point x="1504" y="345" type="line"/>
      <point x="1145" y="1456" type="line"/>
      <point x="964" y="1456" type="line"/>
      <point x="602" y="349" type="line"/>
      <point x="552" y="189" type="line"/>
      <point x="514" y="349" type="line"/>
      <point x="204" y="1456" type="line"/>
      <point x="18" y="1456" type="line"/>
      <point x="441" y="1" type="line"/>
      <point x="654" y="1" type="line"/>
      <point x="1049" y="1247" type="line"/>
      <point x="1442" y="0" type="line"/>
      <point x="1654" y="0" type="line"/>
      <point x="2077" y="1456" type="line"/>
    </contour>
    <contour>
      <point x="1049" y="1456" type="move" name="top"/>
    </contour>
  </outline>
</glyph>
<glyph name="X" format="1">
  <advance width="1304"/>
  <unicode hex="0058"/>
  <outline>
    <contour>
      <point x="1079" y="1456" type="line"/>
      <point x="662" y="854" type="line"/>
      <point x="258" y="1456" type="line"/>
      <point x="50" y="1456" type="line"/>
      <point x="548" y="741" type="line"/>
      <point x="11" y="0" type="line"/>
      <point x="215" y="0" type="line"/>
      <point x="648" y="623" type="line"/>
      <point x="1084" y="0" type="line"/>
      <point x="1285" y="0" type="line"/>
      <point x="764" y="742" type="line"/>
      <point x="1275" y="1456" type="line"/>
    </contour>
  </outline>
</glyph>
<glyph name="Y" format="1">
  <advance width="1256"/>
  <unicode hex="0059"/>
  <outline>
    <contour>
      <point x="1061" y="1456" type="line"/>
      <point x="626" y="727" type="line"/>
      <point x="195" y="1456" type="line"/>
      <point x="4" y="1456" type="line"/>
      <point x="537" y="582" type="line"/>
      <point x="537" y="0" type="line"/>
      <point x="709" y="0" type="line"/>
      <point x="709" y="585" type="line"/>
      <point x="1252" y="1456" type="line"/>
    </contour>
    <contour>
      <point x="627" y="1456" type="move" name="top"/>
    </contour>
  </outline>
</glyph>
<glyph name="c" format="1">
  <advance width="1019"/>
  <unicode hex="0063"/>
  <outline>
    <contour>
      <point x="364" y="1050"/>
      <point x="90" y="852"/>
      <point x="90" y="503" type="curve" smooth="yes"/>
      <point x="90" y="157"/>
      <point x="353" y="-23"/>
      <point x="634" y="-23" type="curve" smooth="yes"/>
      <point x="765" y="-23"/>
      <point x="902" y="22"/>
      <point x="1013" y="112" type="curve"/>
      <point x="956" y="238" type="line"/>
      <point x="873" y="160"/>
      <point x="759" y="119"/>
      <point x="651" y="119" type="curve" smooth="yes"/>
      <point x="450" y="119"/>
      <point x="260" y="241"/>
      <point x="260" y="508" type="curve" smooth="yes"/>
      <point x="260" y="766"/>
      <point x="455" y="906"/>
      <point x="656" y="906" type="curve" smooth="yes"/>
      <point x="751" y="906"/>
      <point x="848" y="871"/>
      <point x="923" y="799" type="curve"/>
      <point x="983" y="920" type="line"/>
      <point x="886" y="1013"/>
      <point x="761" y="1050"/>
      <point x="640" y="1050" type="curve" smooth="yes"/>
    </contour>
    <contour>
      <point x="611" y="1026" type="move" name="top"/>
    </contour>
    <contour>
      <point x="646" y="0" type="move" name="bottom"/>
    </contour>
  </outline>
</glyph>
<glyph name="d" format="1">
  <advance width="1226"/>
  <unicode hex="0064"/>
  <outline>
    <contour>
      <point x="906" y="1506" type="line"/>
      <point x="906" y="917" type="line"/>
      <point x="796" y="1011"/>
      <point x="693" y="1048"/>
      <point x="561" y="1048" type="curve" smooth="yes"/>
      <point x="252" y="1048"/>
      <point x="90" y="810"/>
      <point x="90" y="501" type="curve" smooth="yes"/>
      <point x="90" y="186"/>
      <point x="278" y="-22"/>
      <point x="561" y="-22" type="curve" smooth="yes"/>
      <point x="722" y="-22"/>
      <point x="859" y="52"/>
      <point x="919" y="177" type="curve"/>
      <point x="923" y="111"/>
      <point x="959" y="32"/>
      <point x="997" y="-13" type="curve"/>
      <point x="1159" y="10" type="line"/>
      <point x="1114" y="76"/>
      <point x="1071" y="162"/>
      <point x="1071" y="390" type="curve" smooth="yes"/>
      <point x="1071" y="1526" type="line"/>
    </contour>
    <contour>
      <point x="704" y="907"/>
      <point x="832" y="844"/>
      <point x="907" y="744" type="curve"/>
      <point x="907" y="534" type="line"/>
      <point x="907" y="296"/>
      <point x="818" y="116"/>
      <point x="579" y="116" type="curve" smooth="yes"/>
      <point x="391" y="116"/>
      <point x="260" y="274"/>
      <point x="260" y="507" type="curve" smooth="yes"/>
      <point x="260" y="732"/>
      <point x="359" y="907"/>
      <point x="585" y="907" type="curve" smooth="yes"/>
    </contour>
    <contour>
      <point x="985" y="1294" type="move" name="center"/>
    </contour>
  </outline>
</glyph>
<glyph name="e" format="1">
  <advance width="1070"/>
  <unicode hex="0065"/>
  <outline>
    <contour>
      <point x="281" y="1048"/>
      <point x="90" y="797"/>
      <point x="90" y="516" type="curve" smooth="yes"/>
      <point x="90" y="187"/>
      <point x="315" y="-22"/>
      <point x="619" y="-22" type="curve" smooth="yes"/>
      <point x="779" y="-22"/>
      <point x="931" y="43"/>
      <point x="1031" y="146" type="curve"/>
      <point x="948" y="252" type="line"/>
      <point x="881" y="176"/>
      <point x="758" y="116"/>
      <point x="619" y="116" type="curve" smooth="yes"/>
      <point x="471" y="116"/>
      <point x="325" y="219"/>
      <point x="285" y="371" type="curve"/>
      <point x="673" y="425"/>
      <point x="964" y="506"/>
      <point x="964" y="751" type="curve" smooth="yes"/>
      <point x="964" y="918"/>
      <point x="826" y="1048"/>
      <point x="610" y="1048" type="curve" smooth="yes"/>
    </contour>
    <contour>
      <point x="732" y="907"/>
      <point x="801" y="846"/>
      <point x="801" y="755" type="curve" smooth="yes"/>
      <point x="801" y="594"/>
      <point x="581" y="534"/>
      <point x="273" y="490" type="curve"/>
      <point x="271" y="506"/>
      <point x="270" y="525"/>
      <point x="270" y="539" type="curve" smooth="yes"/>
      <point x="270" y="786"/>
      <point x="445" y="907"/>
      <point x="611" y="907" type="curve" smooth="yes"/>
    </contour>
    <contour>
      <point x="776" y="46" type="move" name="ogonek"/>
    </contour>
    <contour>
      <point x="621" y="0" type="move" name="bottom"/>
    </contour>
    <contour>
      <point x="562" y="1026" type="move" name="top"/>
    </contour>
  </outline>
</glyph>
<glyph name="g" format="1">
  <advance width="1143"/>
  <unicode hex="0067"/>
  <outline>
    <contour>
      <point x="320" y="1048"/>
      <point x="90" y="804"/>
      <point x="90" y="438" type="curve" smooth="yes"/>
      <point x="90" y="162"/>
      <point x="256" y="-22"/>
      <point x="506" y="-22" type="curve" smooth="yes"/>
      <point x="648.066" y="-22"/>
      <point x="783.663" y="38.6356"/>
      <point x="859" y="133.01" type="curve"/>
      <point x="859" y="-44" type="line" smooth="yes"/>
      <point x="859" y="-232"/>
      <point x="720" y="-357"/>
      <point x="511" y="-357" type="curve" smooth="yes"/>
      <point x="422" y="-357"/>
      <point x="300" y="-326"/>
      <point x="208" y="-280" type="curve"/>
      <point x="189" y="-433" type="line"/>
      <point x="290" y="-470"/>
      <point x="424" y="-494"/>
      <point x="525" y="-494" type="curve" smooth="yes"/>
      <point x="824" y="-494"/>
      <point x="1023" y="-306"/>
      <point x="1023" y="-23" type="curve" smooth="yes"/>
      <point x="1023" y="962" type="line"/>
      <point x="943" y="1014"/>
      <point x="800" y="1048"/>
      <point x="666" y="1048" type="curve" smooth="yes"/>
    </contour>
    <contour>
      <point x="739" y="907"/>
      <point x="817" y="893"/>
      <point x="859" y="872" type="curve"/>
      <point x="859" y="453" type="line" smooth="yes"/>
      <point x="859" y="261"/>
      <point x="728" y="116"/>
      <point x="531" y="116" type="curve" smooth="yes"/>
      <point x="368" y="116"/>
      <point x="260" y="249"/>
      <point x="260" y="448" type="curve" smooth="yes"/>
      <point x="260" y="723"/>
      <point x="421" y="907"/>
      <point x="663" y="907" type="curve" smooth="yes"/>
    </contour>
    <contour>
      <point x="639" y="1026" type="move" name="top"/>
    </contour>
  </outline>
</glyph>
<glyph name="h" format="1">
  <advance width="1222"/>
  <unicode hex="0068"/>
  <outline>
    <contour>
      <point x="519" y="1048"/>
      <point x="354" y="965"/>
      <point x="298" y="842" type="curve"/>
      <point x="316" y="532" type="line"/>
      <point x="316" y="795"/>
      <point x="499" y="907"/>
      <point x="651" y="907" type="curve" smooth="yes"/>
      <point x="805" y="907"/>
      <point x="867" y="804"/>
      <point x="867" y="562" type="curve"/>
      <point x="865" y="284" type="line"/>
      <point x="863" y="48"/>
      <point x="912" y="-51"/>
      <point x="1130" y="-19" type="curve"/>
      <point x="1146" y="119" type="line"/>
      <point x="1022" y="95"/>
      <point x="1029" y="167"/>
      <point x="1030" y="320" type="curve"/>
      <point x="1032" y="565" type="line"/>
      <point x="1035" y="903"/>
      <point x="918" y="1048"/>
      <point x="686" y="1048" type="curve" smooth="yes"/>
    </contour>
    <contour>
      <point x="152" y="1506" type="line"/>
      <point x="152" y="0" type="line"/>
      <point x="316" y="0" type="line"/>
      <point x="316" y="1526" type="line"/>
    </contour>
    <contour>
      <point x="228" y="1200" type="move" name="center"/>
    </contour>
    <contour>
      <point x="617" y="1467" type="move" name="top"/>
    </contour>
  </outline>
</glyph>
<glyph name="j" format="1">
  <advance width="539"/>
  <unicode hex="006A"/>
  <outline>
    <contour>
      <point x="207" y="1026" type="line"/>
      <point x="207" y="29" type="line" smooth="yes"/>
      <point x="207" y="-340"/>
      <point x="37" y="-367"/>
      <point x="-143" y="-307" type="curve"/>
      <point x="-162" y="-435" type="line"/>
      <point x="126" y="-523"/>
      <point x="371" y="-416"/>
      <point x="371" y="35" type="curve" smooth="yes"/>
      <point x="371" y="1026" type="line"/>
    </contour>
    <contour>
      <point x="237" y="1444"/>
      <point x="183" y="1411"/>
      <point x="183" y="1345" type="curve" smooth="yes"/>
      <point x="183" y="1279"/>
      <point x="236" y="1245"/>
      <point x="290" y="1245" type="curve" smooth="yes"/>
      <point x="344" y="1245"/>
      <point x="398" y="1278"/>
      <point x="398" y="1344" type="curve" smooth="yes"/>
      <point x="398" y="1410"/>
      <point x="345" y="1444"/>
      <point x="291" y="1444" type="curve" smooth="yes"/>
    </contour>
  </outline>
</glyph>
<glyph name="k" format="1">
  <advance width="1107"/>
  <unicode hex="006B"/>
  <outline>
    <contour>
      <point x="152" y="1496" type="line"/>
      <point x="152" y="60" type="line"/>
      <point x="152" y="-26"/>
      <point x="243" y="-39"/>
      <point x="297" y="27" type="curve"/>
      <point x="602" y="458" type="line"/>
      <point x="763" y="189" type="line" smooth="yes"/>
      <point x="843" y="55"/>
      <point x="960" y="-16"/>
      <point x="1064" y="-35" type="curve"/>
      <point x="1153" y="89" type="line"/>
      <point x="1050" y="88"/>
      <point x="962" y="158"/>
      <point x="891" y="270" type="curve" smooth="yes"/>
      <point x="694" y="580" type="line"/>
      <point x="981" y="976" type="line"/>
      <point x="832" y="1026" type="line"/>
      <point x="316" y="292" type="line"/>
      <point x="316" y="1526" type="line"/>
    </contour>
    <contour>
      <point x="587" y="0" type="move" name="bottom"/>
    </contour>
  </outline>
</glyph>
<glyph name="l" format="1">
  <advance width="686"/>
  <unicode hex="006C"/>
  <outline>
    <contour>
      <point x="168" y="1496" type="line"/>
      <point x="168" y="300" type="line" smooth="yes"/>
      <point x="168" y="-9"/>
      <point x="450" y="-82"/>
      <point x="720" y="35" type="curve"/>
      <point x="695" y="152" type="line"/>
      <point x="519" y="77"/>
      <point x="332" y="84"/>
      <point x="332" y="292" type="curve" smooth="yes"/>
      <point x="332" y="1526" type="line"/>
    </contour>
    <contour>
      <point x="410" y="1456" type="move" name="top"/>
    </contour>
    <contour>
      <point x="414" y="0" type="move" name="bottom"/>
    </contour>
    <contour>
      <point x="579" y="960" type="move" name="topright"/>
    </contour>
  </outline>
</glyph>
<glyph name="m" format="1">
  <advance width="1964"/>
  <unicode hex="006D"/>
  <outline>
    <contour>
      <point x="1261" y="1048"/>
      <point x="1096" y="965"/>
      <point x="1040" y="842" type="curve"/>
      <point x="1017" y="797" type="line"/>
      <point x="1058" y="532" type="line"/>
      <point x="1058" y="795"/>
      <point x="1241" y="907"/>
      <point x="1393" y="907" type="curve" smooth="yes"/>
      <point x="1547" y="907"/>
      <point x="1609" y="804"/>
      <point x="1609" y="562" type="curve"/>
      <point x="1607" y="284" type="line"/>
      <point x="1605" y="48"/>
      <point x="1654" y="-51"/>
      <point x="1872" y="-19" type="curve"/>
      <point x="1888" y="119" type="line"/>
      <point x="1764" y="95"/>
      <point x="1771" y="167"/>
      <point x="1772" y="320" type="curve"/>
      <point x="1774" y="565" type="line"/>
      <point x="1777" y="903"/>
      <point x="1660" y="1048"/>
      <point x="1428" y="1048" type="curve" smooth="yes"/>
    </contour>
    <contour>
      <point x="84" y="974" type="line"/>
      <point x="130" y="897"/>
      <point x="179" y="815"/>
      <point x="179" y="699" type="curve" smooth="yes"/>
      <point x="179" y="0" type="line"/>
      <point x="343" y="0" type="line"/>
      <point x="343" y="652" type="line"/>
      <point x="331" y="812" type="line"/>
      <point x="331" y="896"/>
      <point x="292" y="960"/>
      <point x="249" y="1026" type="curve"/>
    </contour>
    <contour>
      <point x="545" y="1048"/>
      <point x="380" y="965"/>
      <point x="324" y="842" type="curve"/>
      <point x="342" y="532" type="line"/>
      <point x="342" y="795"/>
      <point x="525" y="907"/>
      <point x="677" y="907" type="curve" smooth="yes"/>
      <point x="831" y="907"/>
      <point x="893" y="804"/>
      <point x="893" y="562" type="curve"/>
      <point x="891" y="0" type="line"/>
      <point x="1056" y="0" type="line"/>
      <point x="1058" y="565" type="line"/>
      <point x="1061" y="903"/>
      <point x="944" y="1048"/>
      <point x="712" y="1048" type="curve" smooth="yes"/>
    </contour>
  </outline>
</glyph>
<glyph name="n" format="1">
  <advance width="1248"/>
  <unicode hex="006E"/>
  <outline>
    <contour>
      <point x="545" y="1048"/>
      <point x="380" y="965"/>
      <point x="324" y="842" type="curve"/>
      <point x="342" y="532" type="line" smooth="yes"/>
      <point x="342" y="795"/>
      <point x="525" y="907"/>
      <point x="677" y="907" type="curve" smooth="yes"/>
      <point x="831" y="907"/>
      <point x="893" y="804"/>
      <point x="893" y="562" type="curve"/>
      <point x="891" y="284" type="line" smooth="yes"/>
      <point x="889" y="48"/>
      <point x="938" y="-51"/>
      <point x="1156" y="-19" type="curve"/>
      <point x="1172" y="119" type="line"/>
      <point x="1048" y="95"/>
      <point x="1055" y="167"/>
      <point x="1056" y="320" type="curve"/>
      <point x="1058" y="565" type="line" smooth="yes"/>
      <point x="1061" y="903"/>
      <point x="944" y="1048"/>
      <point x="712" y="1048" type="curve" smooth="yes"/>
    </contour>
    <contour>
      <point x="84" y="974" type="line"/>
      <point x="130" y="897"/>
      <point x="179" y="815"/>
      <point x="179" y="699" type="curve" smooth="yes"/>
      <point x="179" y="0" type="line"/>
      <point x="343" y="0" type="line"/>
      <point x="343" y="652" type="line"/>
      <point x="331" y="812" type="line"/>
      <point x="331" y="896"/>
      <point x="292" y="960"/>
      <point x="249" y="1026" type="curve"/>
    </contour>
    <contour>
      <point x="677" y="1026" type="move" name="top"/>
    </contour>
    <contour>
      <point x="630" y="0" type="move" name="bottom"/>
    </contour>
  </outline>
</glyph>
<glyph name="o" format="1">
  <advance width="1230"/>
  <unicode hex="006F"/>
  <outline>
    <contour>
      <point x="304" y="1048"/>
      <point x="92" y="833"/>
      <point x="92" y="511" type="curve" smooth="yes"/>
      <point x="92" y="191"/>
      <point x="304" y="-22"/>
      <point x="622" y="-22" type="curve" smooth="yes"/>
      <point x="934" y="-22"/>
      <point x="1142" y="192"/>
      <point x="1142" y="513" type="curve" smooth="yes"/>
      <point x="1142" y="834"/>
      <point x="934" y="1048"/>
      <point x="621" y="1048" type="curve" smooth="yes"/>
    </contour>
    <contour>
      <point x="832" y="907"/>
      <point x="972" y="749"/>
      <point x="972" y="511" type="curve" smooth="yes"/>
      <point x="972" y="274"/>
      <point x="832" y="116"/>
      <point x="622" y="116" type="curve" smooth="yes"/>
      <point x="406" y="116"/>
      <point x="262" y="273"/>
      <point x="262" y="509" type="curve" smooth="yes"/>
      <point x="262" y="748"/>
      <point x="406" y="907"/>
      <point x="621" y="907" type="curve" smooth="yes"/>
    </contour>
    <contour>
      <point x="621" y="1026" type="move" name="top"/>
    </contour>
  </outline>
</glyph>
<glyph name="r" format="1">
  <advance width="792"/>
  <unicode hex="0072"/>
  <outline>
    <contour>
      <point x="496" y="1048"/>
      <point x="385" y="960"/>
      <point x="332" y="851" type="curve"/>
      <point x="185" y="779" type="line"/>
      <point x="349" y="568" type="line"/>
      <point x="349" y="803"/>
      <point x="473" y="907"/>
      <point x="619" y="907" type="curve" smooth="yes"/>
      <point x="704" y="907"/>
      <point x="747" y="889"/>
      <point x="764" y="883" type="curve"/>
      <point x="778" y="1028" type="line"/>
      <point x="742" y="1038"/>
      <point x="707" y="1048"/>
      <point x="624" y="1048" type="curve" smooth="yes"/>
    </contour>
    <contour>
      <point x="90" y="974" type="line"/>
      <point x="136" y="897"/>
      <point x="185" y="815"/>
      <point x="185" y="699" type="curve" smooth="yes"/>
      <point x="185" y="0" type="line"/>
      <point x="349" y="0" type="line"/>
      <point x="349" y="652" type="line"/>
      <point x="337" y="812" type="line"/>
      <point x="337" y="896"/>
      <point x="298" y="960"/>
      <point x="255" y="1026" type="curve"/>
    </contour>
    <contour>
      <point x="491" y="1026" type="move" name="top"/>
    </contour>
    <contour>
      <point x="401" y="0" type="move" name="bottom"/>
    </contour>
  </outline>
</glyph>
<glyph name="v" format="1">
  <advance width="1062"/>
  <unicode hex="0076"/>
  <outline>
    <contour>
      <point x="869" y="1026" type="line"/>
      <point x="593" y="336" type="line"/>
      <point x="581" y="309"/>
      <point x="568" y="264"/>
      <point x="537" y="163" type="curve"/>
      <point x="521" y="217"/>
      <point x="498" y="290"/>
      <point x="479" y="336" type="curve" smooth="yes"/>
      <point x="198" y="1026" type="line"/>
      <point x="16" y="1026" type="line"/>
      <point x="445" y="0" type="line"/>
      <point x="613" y="0" type="line"/>
      <point x="1046" y="1026" type="line"/>
    </contour>
  </outline>
</glyph>
<glyph name="w" format="1">
  <advance width="1688"/>
  <unicode hex="0077"/>
  <outline>
    <contour>
      <point x="1493" y="1026" type="line"/>
      <point x="1253" y="287" type="line"/>
      <point x="1241" y="255"/>
      <point x="1232" y="219"/>
      <point x="1219" y="189" type="curve"/>
      <point x="1209" y="219"/>
      <point x="1200" y="258"/>
      <point x="1190" y="286" type="curve" smooth="yes"/>
      <point x="942" y="1026" type="line"/>
      <point x="776" y="1026" type="line"/>
      <point x="511" y="276" type="line"/>
      <point x="499" y="249"/>
      <point x="490" y="214"/>
      <point x="480" y="186" type="curve"/>
      <point x="470" y="217"/>
      <point x="461" y="255"/>
      <point x="451" y="284" type="curve" smooth="yes"/>
      <point x="202" y="1026" type="line"/>
      <point x="26" y="1026" type="line"/>
      <point x="391" y="0" type="line"/>
      <point x="553" y="0" type="line"/>
      <point x="853" y="831" type="line"/>
      <point x="1134" y="0" type="line"/>
      <point x="1294" y="0" type="line"/>
      <point x="1662" y="1026" type="line"/>
    </contour>
    <contour>
      <point x="858" y="1026" type="move" name="top"/>
    </contour>
  </outline>
</glyph>
<glyph name="z" format="1">
  <advance width="979"/>
  <unicode hex="007A"/>
  <outline>
    <contour>
      <point x="106" y="1026" type="line"/>
      <point x="106" y="891" type="line"/>
      <point x="680" y="891" type="line"/>
      <point x="80" y="89" type="line"/>
      <point x="80" y="0" type="line"/>
      <point x="920" y="0" type="line"/>
      <point x="920" y="134" type="line"/>
      <point x="305" y="134" type="line"/>
      <point x="903" y="939" type="line"/>
      <point x="903" y="1026" type="line"/>
    </contour>
    <contour>
      <point x="498" y="0" type="move" name="top"/>
    </contour>
  </outline>
</glyph>
<glyph name="cent" format="1">
  <advance width="1189"/>
  <unicode hex="00A2"/>
  <outline>
    <contour>
      <point x="94" y="193"/>
      <point x="315" y="-23"/>
      <point x="609" y="-23" type="curve" smooth="yes"/>
      <point x="723" y="-23"/>
      <point x="849" y="11"/>
      <point x="976" y="87" type="curve"/>
      <point x="940" y="225" type="line"/>
      <point x="825" y="146"/>
      <point x="714" y="117"/>
      <point x="616" y="117" type="curve" smooth="yes"/>
      <point x="412" y="117"/>
      <point x="267" y="258"/>
      <point x="267" y="508" type="curve" smooth="yes"/>
      <point x="267" y="737"/>
      <point x="389" y="909"/>
      <point x="619" y="909" type="curve" smooth="yes"/>
      <point x="738" y="909"/>
      <point x="826" y="872"/>
      <point x="883" y="801" type="curve"/>
      <point x="960" y="912" type="line"/>
      <point x="892" y="1002"/>
      <point x="769" y="1051"/>
      <point x="610" y="1051" type="curve" smooth="yes"/>
      <point x="289" y="1051"/>
      <point x="94" y="824"/>
      <point x="94" y="503" type="curve" smooth="yes"/>
    </contour>
    <contour>
      <point x="553" y="-235" type="line"/>
      <point x="666" y="-235" type="line"/>
      <point x="666" y="1281" type="line"/>
      <point x="553" y="1281" type="line"/>
    </contour>
  </outline>
</glyph>
<glyph name="yen" format="1">
  <advance width="1266"/>
  <unicode hex="00A5"/>
  <outline>
    <contour>
      <point x="147" y="283" type="line"/>
      <point x="1102" y="283" type="line"/>
      <point x="1102" y="423" type="line"/>
      <point x="695" y="423" type="line"/>
      <point x="695" y="574" type="line"/>
      <point x="1099" y="574" type="line"/>
      <point x="1099" y="716" type="line"/>
      <point x="141" y="716" type="line"/>
      <point x="141" y="574" type="line"/>
      <point x="554" y="574" type="line"/>
      <point x="554" y="423" type="line"/>
      <point x="147" y="423" type="line"/>
    </contour>
    <component base="Y"/>
  </outline>
</glyph>
<glyph name="Thorn" format="1">
  <advance width="1274"/>
  <unicode hex="00DE"/>
  <outline>
    <contour>
      <point x="203" y="0" type="line"/>
      <point x="375" y="0" type="line"/>
      <point x="375" y="443" type="line"/>
      <point x="597" y="443" type="line" smooth="yes"/>
      <point x="764" y="443"/>
      <point x="913" y="480"/>
      <point x="1018" y="546" type="curve" smooth="yes"/>
      <point x="1121" y="611"/>
      <point x="1200" y="714"/>
      <point x="1200" y="876" type="curve" smooth="yes"/>
      <point x="1200" y="1231"/>
      <point x="899" y="1312"/>
      <point x="544" y="1312" type="curve" smooth="yes"/>
      <point x="375" y="1312" type="line"/>
      <point x="375" y="1456" type="line"/>
      <point x="203" y="1456" type="line"/>
    </contour>
    <contour>
      <point x="375" y="592" type="line"/>
      <point x="375" y="1164" type="line"/>
      <point x="588" y="1164" type="line" smooth="yes"/>
      <point x="828" y="1164"/>
      <point x="1016" y="1114"/>
      <point x="1016" y="874" type="curve" smooth="yes"/>
      <point x="1016" y="825"/>
      <point x="1007" y="782"/>
      <point x="988" y="747" type="curve" smooth="yes"/>
      <point x="930" y="639"/>
      <point x="802" y="592"/>
      <point x="636" y="592" type="curve" smooth="yes"/>
    </contour>
  </outline>
</glyph>
<glyph name="germandbls" format="1">
  <advance width="1257"/>
  <unicode hex="00DF"/>
  <outline>
    <contour>
      <point x="543" y="47"/>
      <point x="648" y="-23"/>
      <point x="792" y="-23" type="curve" smooth="yes"/>
      <point x="841" y="-23"/>
      <point x="888" y="-14"/>
      <point x="934" y="3" type="curve" smooth="yes"/>
      <point x="1064" y="52"/>
      <point x="1173" y="164"/>
      <point x="1173" y="341" type="curve" smooth="yes"/>
      <point x="1173" y="407"/>
      <point x="1160" y="464"/>
      <point x="1133" y="514" type="curve" smooth="yes"/>
      <point x="1054" y="661"/>
      <point x="896" y="747"/>
      <point x="722" y="798" type="curve" smooth="yes"/>
      <point x="703" y="804"/>
      <point x="693" y="810"/>
      <point x="693" y="816" type="curve" smooth="yes"/>
      <point x="693" y="827"/>
      <point x="710" y="834"/>
      <point x="719" y="838" type="curve" smooth="yes"/>
      <point x="788" y="868"/>
      <point x="852" y="916"/>
      <point x="903" y="968" type="curve" smooth="yes"/>
      <point x="955" y="1020"/>
      <point x="1011" y="1093"/>
      <point x="1011" y="1192" type="curve" smooth="yes"/>
      <point x="1011" y="1236"/>
      <point x="1002" y="1277"/>
      <point x="984" y="1316" type="curve" smooth="yes"/>
      <point x="925" y="1440"/>
      <point x="788" y="1511"/>
      <point x="604" y="1511" type="curve" smooth="yes"/>
      <point x="535" y="1511"/>
      <point x="474" y="1501"/>
      <point x="420" y="1480" type="curve" smooth="yes"/>
      <point x="267" y="1420"/>
      <point x="174" y="1282"/>
      <point x="174" y="1071" type="curve" smooth="yes"/>
      <point x="176" y="0" type="line"/>
      <point x="341" y="0" type="line"/>
      <point x="341" y="101"/>
      <point x="340" y="217"/>
      <point x="340" y="326" type="curve" smooth="yes"/>
      <point x="340" y="450"/>
      <point x="338" y="587"/>
      <point x="338" y="711" type="curve" smooth="yes"/>
      <point x="338" y="820"/>
      <point x="337" y="937"/>
      <point x="337" y="1038" type="curve" smooth="yes"/>
      <point x="337" y="1228"/>
      <point x="413" y="1382"/>
      <point x="603" y="1382" type="curve" smooth="yes"/>
      <point x="731" y="1382"/>
      <point x="823" y="1318"/>
      <point x="823" y="1191" type="curve" smooth="yes"/>
      <point x="823" y="1157"/>
      <point x="817" y="1125"/>
      <point x="804" y="1095" type="curve" smooth="yes"/>
      <point x="763" y="1001"/>
      <point x="681" y="934"/>
      <point x="588" y="892" type="curve"/>
      <point x="572" y="756" type="line"/>
      <point x="672" y="699"/>
      <point x="777" y="641"/>
      <point x="858" y="570" type="curve" smooth="yes"/>
      <point x="924" y="512"/>
      <point x="986" y="437"/>
      <point x="986" y="322" type="curve" smooth="yes"/>
      <point x="986" y="197"/>
      <point x="911" y="109"/>
      <point x="788" y="109" type="curve" smooth="yes"/>
      <point x="679" y="109"/>
      <point x="597" y="173"/>
      <point x="536" y="243" type="curve"/>
      <point x="471" y="138" type="line"/>
    </contour>
  </outline>
</glyph>
<glyph name="dotlessi" format="1">
  <advance width="503"/>
  <unicode hex="0131"/>
  <outline>
    <contour>
      <point x="167" y="67"/>
      <point x="292" y="-5"/>
      <point x="434" y="-5" type="curve" smooth="yes"/>
      <point x="481" y="-5"/>
      <point x="550" y="10"/>
      <point x="600" y="30" type="curve"/>
      <point x="580" y="141" type="line"/>
      <point x="545" y="128"/>
      <point x="487" y="118"/>
      <point x="457" y="118" type="curve" smooth="yes"/>
      <point x="389" y="118"/>
      <point x="332" y="143"/>
      <point x="332" y="283" type="curve"/>
      <point x="332" y="1026" type="line"/>
      <point x="167" y="1026" type="line"/>
      <point x="167" y="278" type="line" smooth="yes"/>
    </contour>
    <contour>
      <point x="453" y="10" type="move" name="ogonek"/>
    </contour>
    <contour>
      <point x="252" y="1026" type="move" name="top"/>
    </contour>
  </outline>
</glyph>
<glyph name="OE" format="1">
  <advance width="2099"/>
  <unicode hex="0152"/>
  <outline>
    <contour>
      <point x="114" y="287.812"/>
      <point x="351.547" y="-23"/>
      <point x="829" y="-23" type="curve" smooth="yes"/>
      <point x="970" y="-23"/>
      <point x="1070" y="32"/>
      <point x="1151" y="105" type="curve"/>
      <point x="1151" y="0" type="line"/>
      <point x="1984" y="0" type="line"/>
      <point x="1984" y="148" type="line"/>
      <point x="1323" y="148" type="line"/>
      <point x="1323" y="672" type="line"/>
      <point x="1916" y="672" type="line"/>
      <point x="1916" y="820" type="line"/>
      <point x="1323" y="820" type="line"/>
      <point x="1323" y="1308" type="line"/>
      <point x="1954" y="1308" type="line"/>
      <point x="1954" y="1456" type="line"/>
      <point x="1151" y="1456" type="line"/>
      <point x="1151" y="1381" type="line"/>
      <point x="1069" y="1439"/>
      <point x="968" y="1483"/>
      <point x="837" y="1483" type="curve" smooth="yes"/>
      <point x="400.947" y="1483"/>
      <point x="114" y="1208.31"/>
      <point x="114" y="729" type="curve" smooth="yes"/>
    </contour>
    <contour>
      <point x="1075" y="186"/>
      <point x="973" y="125"/>
      <point x="827" y="125" type="curve" smooth="yes"/>
      <point x="492.335" y="125"/>
      <point x="298" y="356.1"/>
      <point x="298" y="725" type="curve" smooth="yes"/>
      <point x="298" y="1081.83"/>
      <point x="466.915" y="1335"/>
      <point x="830" y="1335" type="curve" smooth="yes"/>
      <point x="972" y="1335"/>
      <point x="1072" y="1288"/>
      <point x="1151" y="1219" type="curve"/>
      <point x="1151" y="265" type="line"/>
    </contour>
    <contour>
      <point x="1050" y="0" type="move" name="top"/>
    </contour>
  </outline>
</glyph>
<glyph name="tilde" format="1">
  <advance width="663"/>
  <unicode hex="02DC"/>
  <outline>
    <contour>
      <point x="89" y="1413"/>
      <point x="24" y="1319"/>
      <point x="14" y="1203" type="curve"/>
      <point x="119" y="1203" type="line"/>
      <point x="126" y="1260"/>
      <point x="156" y="1288"/>
      <point x="210" y="1288" type="curve" smooth="yes"/>
      <point x="305" y="1288"/>
      <point x="367" y="1220"/>
      <point x="463" y="1220" type="curve" smooth="yes"/>
      <point x="587" y="1220"/>
      <point x="645" y="1322"/>
      <point x="658" y="1435" type="curve"/>
      <point x="550" y="1435" type="line"/>
      <point x="543" y="1384"/>
      <point x="516" y="1345"/>
      <point x="463" y="1345" type="curve" smooth="yes"/>
      <point x="444" y="1345"/>
      <point x="424" y="1349"/>
      <point x="404" y="1356" type="curve" smooth="yes"/>
      <point x="346" y="1377"/>
      <point x="289" y="1413"/>
      <point x="213" y="1413" type="curve" smooth="yes"/>
    </contour>
    <contour>
      <point x="336" y="1026" type="move" name="_top"/>
    </contour>
  </outline>
</glyph>
<glyph name="Euro" format="1">
  <advance width="1190"/>
  <unicode hex="20AC"/>
  <outline>
    <contour>
      <point x="251" y="209"/>
      <point x="407" y="-21"/>
      <point x="751" y="-21" type="curve" smooth="yes"/>
      <point x="890" y="-21"/>
      <point x="994" y="14"/>
      <point x="1083" y="75" type="curve"/>
      <point x="1084" y="253" type="line"/>
      <point x="995" y="184"/>
      <point x="900" y="125"/>
      <point x="767" y="125" type="curve" smooth="yes"/>
      <point x="520" y="125"/>
      <point x="422" y="297"/>
      <point x="392" y="516" type="curve"/>
      <point x="934" y="516" type="line"/>
      <point x="953" y="654" type="line"/>
      <point x="378" y="654" type="line"/>
      <point x="376" y="702" type="line" smooth="yes"/>
      <point x="375" y="720"/>
      <point x="374" y="742"/>
      <point x="375" y="761" type="curve"/>
      <point x="375" y="773" type="line" smooth="yes"/>
      <point x="375" y="777"/>
      <point x="376" y="781"/>
      <point x="377" y="784" type="curve"/>
      <point x="967" y="784" type="line"/>
      <point x="987" y="922" type="line"/>
      <point x="395" y="922" type="line"/>
      <point x="437" y="1116"/>
      <point x="541" y="1303"/>
      <point x="776" y="1303" type="curve" smooth="yes"/>
      <point x="914" y="1303"/>
      <point x="1009" y="1232"/>
      <point x="1070" y="1141" type="curve"/>
      <point x="1106" y="1330" type="line"/>
      <point x="1028" y="1404"/>
      <point x="928" y="1448"/>
      <point x="783" y="1448" type="curve" smooth="yes"/>
      <point x="704" y="1448"/>
      <point x="632" y="1435"/>
      <point x="569" y="1409" type="curve" smooth="yes"/>
      <point x="376" y="1330"/>
      <point x="260" y="1153"/>
      <point x="218" y="922" type="curve"/>
      <point x="97" y="922" type="line"/>
      <point x="75" y="784" type="line"/>
      <point x="199" y="784" type="line"/>
      <point x="198" y="761"/>
      <point x="197" y="741"/>
      <point x="197" y="719" type="curve" smooth="yes"/>
      <point x="197" y="694"/>
      <point x="198" y="672"/>
      <point x="200" y="654" type="curve"/>
      <point x="98" y="654" type="line"/>
      <point x="78" y="516" type="line"/>
      <point x="213" y="516" type="line"/>
    </contour>
  </outline>
</glyph>
<glyph name="a.alt" format="1">
  <advance width="1219"/>
  <outline>
    <contour>
      <point x="88" y="192"/>
      <point x="281" y="-23"/>
      <point x="553" y="-23" type="curve" smooth="yes"/>
      <point x="675" y="-23"/>
      <point x="832" y="13"/>
      <point x="925" y="166" type="curve"/>
      <point x="952" y="46"/>
      <point x="1070" y="-4"/>
      <point x="1157" y="-4" type="curve"/>
      <point x="1191" y="139" type="line"/>
      <point x="1139" y="139"/>
      <point x="1066" y="170"/>
      <point x="1066" y="286" type="curve" smooth="yes"/>
      <point x="1066" y="519" type="line" smooth="yes"/>
      <point x="1066" y="928"/>
      <point x="864" y="1052"/>
      <point x="614" y="1052" type="curve" smooth="yes"/>
      <point x="284" y="1052"/>
      <point x="88" y="844"/>
      <point x="88" y="494" type="curve" smooth="yes"/>
    </contour>
    <contour>
      <point x="902" y="272"/>
      <point x="828" y="117"/>
      <point x="572" y="117" type="curve" smooth="yes"/>
      <point x="387" y="117"/>
      <point x="255" y="278"/>
      <point x="255" y="504" type="curve" smooth="yes"/>
      <point x="255" y="761"/>
      <point x="390" y="913"/>
      <point x="617" y="913" type="curve" smooth="yes"/>
      <point x="798" y="913"/>
      <point x="902" y="814"/>
      <point x="902" y="524" type="curve" smooth="yes"/>
    </contour>
    <contour>
      <point x="1077" y="23" type="move" name="ogonek"/>
    </contour>
    <contour>
      <point x="630" y="1014" type="move" name="top"/>
    </contour>
  </outline>
</glyph>
<glyph name="s.alt" format="1">
  <advance width="1001"/>
  <outline>
    <contour>
      <point x="220" y="25"/>
      <point x="396" y="-26"/>
      <point x="552" y="-26" type="curve" smooth="yes"/>
      <point x="739" y="-26"/>
      <point x="902" y="52"/>
      <point x="902" y="284" type="curve" smooth="yes"/>
      <point x="902" y="492"/>
      <point x="710" y="547"/>
      <point x="550" y="596" type="curve" smooth="yes"/>
      <point x="455" y="625"/>
      <point x="285" y="653"/>
      <point x="285" y="774" type="curve" smooth="yes"/>
      <point x="285" y="881"/>
      <point x="382" y="917"/>
      <point x="493" y="917" type="curve" smooth="yes"/>
      <point x="606" y="917"/>
      <point x="732" y="880"/>
      <point x="787" y="844" type="curve"/>
      <point x="834" y="966" type="line"/>
      <point x="736" y="1025"/>
      <point x="612" y="1056"/>
      <point x="494" y="1056" type="curve" smooth="yes"/>
      <point x="294" y="1056"/>
      <point x="114" y="967"/>
      <point x="114" y="771" type="curve" smooth="yes"/>
      <point x="114" y="570"/>
      <point x="283" y="512"/>
      <point x="448" y="463" type="curve" smooth="yes"/>
      <point x="555" y="431"/>
      <point x="739" y="404"/>
      <point x="739" y="272" type="curve" smooth="yes"/>
      <point x="739" y="150"/>
      <point x="644" y="112"/>
      <point x="529" y="112" type="curve" smooth="yes"/>
      <point x="396" y="112"/>
      <point x="236" y="170"/>
      <point x="161" y="227" type="curve"/>
      <point x="114" y="90" type="line"/>
    </contour>
    <contour>
      <point x="501" y="0" type="move" name="top"/>
    </contour>
    <contour>
      <point x="501" y="0" type="move" name="bottom"/>
    </contour>
  </outline>
</glyph>
